<svg width="256" height="256" viewBox="0 0 256 256" fill="none" xmlns="http://www.w3.org/2000/svg">
  <defs>
    <linearGradient id="g1" x1="24" y1="24" x2="232" y2="232" gradientUnits="userSpaceOnUse">
      <stop stop-color="#22D3EE"/>
      <stop offset="1" stop-color="#3B82F6"/>
    </linearGradient>
    <linearGradient id="g2" x1="64" y1="64" x2="196" y2="196" gradientUnits="userSpaceOnUse">
      <stop stop-color="#F8FAFC"/>
      <stop offset="1" stop-color="#DBEAFE"/>
    </linearGradient>
  </defs>

  <rect x="20" y="20" width="216" height="216" rx="56" fill="url(#g1)"/>
  <rect x="48" y="48" width="160" height="160" rx="36" fill="#0F172A" fill-opacity="0.24"/>

  <path d="M78 92C78 84.268 84.268 78 92 78H164C171.732 78 178 84.268 178 92V164C178 171.732 171.732 178 164 178H92C84.268 178 78 171.732 78 164V92Z" fill="url(#g2)" fill-opacity="0.94"/>

  <path d="M100 106H156" stroke="#1E3A8A" stroke-width="10" stroke-linecap="round"/>
  <path d="M100 128H146" stroke="#1E3A8A" stroke-width="10" stroke-linecap="round"/>
  <path d="M100 150H132" stroke="#1E3A8A" stroke-width="10" stroke-linecap="round"/>

  <circle cx="172" cy="174" r="26" fill="#0EA5E9"/>
  <path d="M162 174L169 181L184 166" stroke="#ECFEFF" stroke-width="7" stroke-linecap="round" stroke-linejoin="round"/>
</svg>
